<?xml version="1.0" encoding="UTF-8"?>
<svg id="Layer_1" data-name="Layer 1" xmlns="http://www.w3.org/2000/svg" viewBox="0 0 1110.2 514.24">
  <defs>
    <style>
      .cls-1 {
        fill: #fff;
      }

      .cls-2 {
        fill: #fb8523;
      }

      .cls-3 {
        fill: #061651;
      }
    </style>
  </defs>
  <rect class="cls-2" x="5.05" y="349.63" width="1105.15" height="164.61"/>
  <g>
    <g>
      <path class="cls-1" d="M416.79,202.79c17.14,0,29.89-6.09,38.24-18.28h44.33c-5.64,17.15-15.63,30.69-29.95,40.61-14.33,9.93-31.76,14.89-52.29,14.89-13.09,0-25.04-2.09-35.87-6.26-10.83-4.17-20.08-10.09-27.75-17.77-7.67-7.67-13.6-16.92-17.77-27.75-4.18-10.83-6.26-22.79-6.26-35.87s2.08-24.99,6.26-35.71c4.17-10.71,10.1-19.85,17.77-27.41,7.67-7.56,16.92-13.42,27.75-17.6,10.83-4.17,22.79-6.26,35.87-6.26s24.99,2.09,35.71,6.26c10.71,4.18,19.91,10.04,27.58,17.6,7.67,7.56,13.59,16.7,17.77,27.41,4.17,10.72,6.26,22.62,6.26,35.71,0,2.49-.06,4.8-.17,6.94-.12,2.15-.29,4.35-.51,6.6h-132.33c2.25,11.73,7.33,20.81,15.23,27.24,7.9,6.43,17.94,9.65,30.12,9.65ZM459.43,128.67c-3.61-8.34-9.08-14.77-16.41-19.29-7.33-4.51-16.08-6.77-26.23-6.77s-18.84,2.26-26.06,6.77c-7.22,4.52-12.64,10.95-16.25,19.29h84.95Z"/>
      <path class="cls-1" d="M506.47,67.75h46.7l33.17,50.09,33.17-50.09h46.7l-55.84,84.61,55.84,84.61h-46.7l-33.17-50.09-33.17,50.09h-46.7l55.84-84.61-55.84-84.61Z"/>
      <path class="cls-1" d="M681.45,304.66v-152.63c0-13.54,2.31-25.72,6.94-36.55,4.62-10.83,10.88-19.97,18.78-27.41,7.9-7.45,17.26-13.14,28.09-17.09,10.83-3.95,22.45-5.92,34.86-5.92s24.54,2.09,35.03,6.26c10.49,4.18,19.57,10.1,27.24,17.77,7.67,7.67,13.59,16.81,17.77,27.41,4.17,10.61,6.26,22.45,6.26,35.54s-2.09,25.04-6.26,35.87c-4.18,10.83-9.99,20.08-17.43,27.75-7.45,7.67-16.36,13.6-26.74,17.77-10.38,4.17-21.65,6.26-33.84,6.26s-22.57-1.92-31.14-5.75c-8.57-3.83-14.89-8.34-18.95-13.54v84.27h-40.61ZM815.8,152.36c0-15.79-4.23-28.09-12.69-36.89-8.46-8.8-19.8-13.2-34.01-13.2s-25.62,4.4-34.19,13.2c-8.57,8.8-12.85,21.1-12.85,36.89s4.28,28.09,12.85,36.89c8.57,8.8,19.97,13.2,34.19,13.2s25.55-4.4,34.01-13.2c8.46-8.8,12.69-21.09,12.69-36.89Z"/>
      <path class="cls-1" d="M878.75.07h40.61v236.9h-40.61V.07Z"/>
      <path class="cls-1" d="M936.28,67.75h42.3l40.61,117.1,40.61-117.1h42.3l-59.9,169.22c-3.38,9.93-6.83,19.85-10.32,29.78-3.5,9.93-8.07,18.89-13.71,26.91-5.64,8.01-12.92,14.5-21.83,19.46-8.92,4.96-20.48,7.45-34.69,7.45v-37.23c5.64,0,10.88-1.58,15.74-4.74,4.85-3.16,8.91-7.22,12.18-12.18,3.27-4.96,5.42-10.44,6.43-16.41,1.02-5.98.51-11.79-1.52-17.43l-58.21-164.82Z"/>
    </g>
    <g>
      <path class="cls-1" d="M38.68,234.19l5.52-7.94,8.67-12.45,7.67-11.15,10.94-15.63,5.03-7.29,46.06-68.59c4.14-6.16,9.89-10.09,17.25-10.6,6.17-.43,14.29,1.77,18.92,7.79l43.08,56.02,74.95-101.62c7.9-10.72,23.58-10.39,32.42-2.53,10.25,9.11,9.92,22.02,1.82,32.97l-91.11,123.12c-8.31,10.51-24.99,12.86-33.8,1.56l-43.24-55.44-76.62,110.91c-2.67,3.87-8.07,2.02-10.14-.32-3.48-3.95-2.39-7.09.54-11.08l13.61-18.57c2.07-2.83,1.06-7.76-.92-9.92-1.85-2.03-7.42-3.63-10.11-1.23-7.61,6.81-10.5,18.6-19.29,13.41-3.77-2.22-4.19-7.23-1.27-11.42Z"/>
      <circle class="cls-2" cx="332.99" cy="24.36" r="24.36"/>
      <path class="cls-1" d="M31.42,321.13c-2.69,3.64-6.18,4.86-9.9,2.97-2.43-1.23-5.17-5.93-3.02-9.28,6.15-9.59,12.56-18.22,19.95-27.07,2.01-2.4,7.38-1.3,9.51.69,2.11,1.98,2.8,6.51.47,9.68l-17.01,23.01Z"/>
      <path class="cls-1" d="M17.46,282.89c2.52,6.06-5.59,15.02-9.79,15.2-2.96.12-6.76-2.31-7.37-4.52-1.82-6.6,5.46-15.04,9.23-15.15,3.32-.1,6.91,1.99,7.94,4.47Z"/>
      <path class="cls-1" d="M26.62,253.73c4.59-.89,8.4,1.69,9.25,5.83.9,4.38-1.11,7.49-6.14,9.2-3.21,1.1-7.25-1.29-8.72-5.28-1.47-4.02.71-8.8,5.61-9.76Z"/>
    </g>
  </g>
  <g>
    <path class="cls-3" d="M73.67,488.5c-6.83-2.8-12.29-6.94-16.38-12.43-4.09-5.49-6.25-12.1-6.47-19.82h30.58c.45,4.37,1.96,7.7,4.54,10,2.58,2.3,5.94,3.44,10.08,3.44s7.62-.98,10.08-2.94c2.46-1.96,3.7-4.67,3.7-8.15,0-2.91-.98-5.32-2.94-7.22-1.96-1.9-4.37-3.47-7.22-4.7-2.86-1.23-6.92-2.63-12.18-4.2-7.62-2.35-13.83-4.7-18.65-7.06-4.82-2.35-8.96-5.82-12.43-10.42-3.47-4.59-5.21-10.58-5.21-17.98,0-10.98,3.97-19.57,11.93-25.79,7.95-6.22,18.31-9.32,31.08-9.32s23.46,3.11,31.42,9.32c7.95,6.22,12.21,14.87,12.77,25.96h-31.08c-.23-3.81-1.62-6.8-4.2-8.99-2.58-2.18-5.88-3.28-9.91-3.28-3.47,0-6.27.92-8.4,2.77-2.13,1.85-3.19,4.51-3.19,7.98,0,3.81,1.79,6.78,5.38,8.9,3.58,2.13,9.18,4.43,16.8,6.89,7.62,2.58,13.8,5.04,18.56,7.39,4.76,2.35,8.88,5.77,12.35,10.25,3.47,4.48,5.21,10.25,5.21,17.3s-1.71,12.83-5.12,18.31c-3.42,5.49-8.37,9.86-14.87,13.1-6.5,3.25-14.17,4.87-23.02,4.87s-16.35-1.4-23.18-4.2Z"/>
    <path class="cls-3" d="M292.74,373.59v23.02h-31.25v94.92h-28.73v-94.92h-31.25v-23.02h91.22Z"/>
    <path class="cls-3" d="M385.81,373.59v70.56c0,7.06,1.74,12.49,5.21,16.3,3.47,3.81,8.57,5.71,15.29,5.71s11.87-1.9,15.46-5.71c3.58-3.81,5.38-9.24,5.38-16.3v-70.56h28.73v70.39c0,10.53-2.24,19.43-6.72,26.71-4.48,7.28-10.5,12.77-18.06,16.46s-15.99,5.54-25.28,5.54-17.61-1.82-24.95-5.46c-7.34-3.64-13.13-9.13-17.39-16.46-4.26-7.33-6.38-16.27-6.38-26.8v-70.39h28.73Z"/>
    <path class="cls-3" d="M603.2,380.98c9.29,4.93,16.49,11.84,21.59,20.75,5.09,8.9,7.64,19.18,7.64,30.83s-2.55,21.78-7.64,30.74c-5.1,8.96-12.32,15.9-21.67,20.83-9.35,4.93-20.19,7.39-32.51,7.39h-44.18v-117.94h44.18c12.43,0,23.29,2.46,32.59,7.39ZM594.13,457.76c6.05-5.94,9.07-14.34,9.07-25.2s-3.02-19.32-9.07-25.37-14.51-9.07-25.37-9.07h-13.61v68.54h13.61c10.86,0,19.32-2.97,25.37-8.9Z"/>
    <path class="cls-3" d="M727.68,373.59v117.94h-28.73v-117.94h28.73Z"/>
    <path class="cls-3" d="M824.2,484.98c-9.24-5.15-16.58-12.35-22.01-21.59-5.43-9.24-8.15-19.63-8.15-31.16s2.71-21.9,8.15-31.08c5.43-9.18,12.77-16.35,22.01-21.5,9.24-5.15,19.4-7.73,30.49-7.73s21.25,2.58,30.49,7.73c9.24,5.15,16.52,12.32,21.84,21.5,5.32,9.18,7.98,19.55,7.98,31.08s-2.69,21.92-8.06,31.16c-5.38,9.24-12.66,16.44-21.84,21.59-9.18,5.15-19.32,7.73-30.41,7.73s-21.25-2.58-30.49-7.73ZM877.29,457.09c5.65-6.27,8.48-14.56,8.48-24.86s-2.83-18.73-8.48-24.95c-5.66-6.22-13.19-9.32-22.6-9.32s-17.11,3.08-22.76,9.24c-5.66,6.16-8.48,14.51-8.48,25.03s2.83,18.73,8.48,24.95c5.65,6.22,13.24,9.32,22.76,9.32s16.94-3.13,22.6-9.41Z"/>
    <path class="cls-3" d="M1000.85,488.5c-6.83-2.8-12.29-6.94-16.38-12.43-4.09-5.49-6.25-12.1-6.47-19.82h30.58c.45,4.37,1.96,7.7,4.54,10,2.58,2.3,5.94,3.44,10.08,3.44s7.62-.98,10.08-2.94c2.46-1.96,3.7-4.67,3.7-8.15,0-2.91-.98-5.32-2.94-7.22-1.96-1.9-4.37-3.47-7.22-4.7-2.86-1.23-6.92-2.63-12.18-4.2-7.62-2.35-13.83-4.7-18.65-7.06-4.82-2.35-8.96-5.82-12.43-10.42-3.47-4.59-5.21-10.58-5.21-17.98,0-10.98,3.97-19.57,11.93-25.79,7.95-6.22,18.31-9.32,31.08-9.32s23.46,3.11,31.42,9.32c7.95,6.22,12.21,14.87,12.77,25.96h-31.08c-.23-3.81-1.62-6.8-4.2-8.99-2.58-2.18-5.88-3.28-9.91-3.28-3.47,0-6.27.92-8.4,2.77-2.13,1.85-3.19,4.51-3.19,7.98,0,3.81,1.79,6.78,5.38,8.9,3.58,2.13,9.18,4.43,16.8,6.89,7.62,2.58,13.8,5.04,18.56,7.39,4.76,2.35,8.88,5.77,12.35,10.25,3.47,4.48,5.21,10.25,5.21,17.3s-1.71,12.83-5.12,18.31c-3.42,5.49-8.37,9.86-14.87,13.1-6.5,3.25-14.17,4.87-23.02,4.87s-16.35-1.4-23.18-4.2Z"/>
  </g>
</svg>