<?xml version="1.0" encoding="UTF-8"?>
<svg id="Layer_1" xmlns="http://www.w3.org/2000/svg" version="1.1" viewBox="0 0 1280 300">
  <!-- Generator: Adobe Illustrator 30.3.0, SVG Export Plug-In . SVG Version: 2.1.3 Build 182)  -->
  <defs>
    <style>
      .st0 {
        fill: #fb8523;
      }

      .st1 {
        fill: #061651;
      }
    </style>
  </defs>
  <g>
    <g>
      <path class="st1" d="M364.39,193.92c14.53,0,25.33-5.16,32.4-15.48h37.57c-4.78,14.53-13.24,26-25.38,34.41-12.14,8.41-26.91,12.62-44.3,12.62-11.09,0-21.22-1.77-30.4-5.31s-17.02-8.55-23.51-15.05c-6.5-6.5-11.52-14.34-15.06-23.51-3.54-9.18-5.3-19.31-5.3-30.4s1.77-21.17,5.3-30.25c3.54-9.08,8.55-16.82,15.06-23.23,6.5-6.4,14.34-11.37,23.51-14.91,9.18-3.54,19.31-5.31,30.4-5.31s21.17,1.77,30.25,5.31c9.08,3.54,16.87,8.51,23.37,14.91,6.5,6.41,11.52,14.15,15.06,23.23,3.54,9.08,5.3,19.17,5.3,30.25,0,2.11-.05,4.06-.14,5.88-.1,1.82-.24,3.68-.43,5.59h-112.12c1.91,9.94,6.21,17.64,12.9,23.08,6.69,5.45,15.2,8.17,25.52,8.17ZM400.52,131.12c-3.06-7.07-7.7-12.52-13.91-16.35-6.21-3.82-13.62-5.74-22.22-5.74s-15.96,1.91-22.08,5.74c-6.12,3.83-10.71,9.27-13.76,16.35h71.98Z"/>
      <path class="st1" d="M434.65,79.5h39.57l28.1,42.44,28.1-42.44h39.57l-47.32,71.69,47.32,71.69h-39.57l-28.1-42.44-28.1,42.44h-39.57l47.32-71.69-47.32-71.69Z"/>
      <path class="st1" d="M577.17,280.23v-129.33c0-11.47,1.96-21.79,5.88-30.97,3.92-9.18,9.22-16.92,15.92-23.23,6.69-6.31,14.62-11.13,23.8-14.48,9.18-3.34,19.02-5.02,29.54-5.02s20.79,1.77,29.68,5.31c8.89,3.54,16.58,8.56,23.08,15.05,6.5,6.5,11.51,14.24,15.05,23.23,3.54,8.99,5.3,19.02,5.3,30.11s-1.77,21.22-5.3,30.4c-3.54,9.18-8.46,17.02-14.77,23.51-6.31,6.5-13.86,11.52-22.65,15.05s-18.35,5.3-28.67,5.3-19.12-1.63-26.39-4.88c-7.26-3.25-12.61-7.07-16.05-11.47v71.4h-34.41ZM691.01,151.19c0-13.38-3.58-23.8-10.75-31.26-7.17-7.46-16.78-11.18-28.82-11.18s-21.7,3.73-28.97,11.18-10.89,17.88-10.89,31.26,3.63,23.8,10.89,31.26c7.26,7.46,16.92,11.18,28.97,11.18s21.65-3.73,28.82-11.18c7.17-7.46,10.75-17.87,10.75-31.26Z"/>
      <path class="st1" d="M738.61,22.15h34.41v200.73h-34.41V22.15Z"/>
      <path class="st1" d="M781.62,79.5h35.84l34.41,99.22,34.41-99.22h35.85l-50.76,143.38c-2.87,8.41-5.78,16.82-8.75,25.23-2.97,8.41-6.84,16.01-11.61,22.8-4.78,6.78-10.95,12.28-18.5,16.49-7.55,4.2-17.35,6.31-29.39,6.31v-31.54c4.78,0,9.22-1.34,13.33-4.01,4.11-2.68,7.55-6.12,10.32-10.32,2.77-4.21,4.59-8.84,5.45-13.91.86-5.07.43-9.99-1.29-14.77l-49.32-139.65Z"/>
    </g>
    <g>
      <path class="st1" d="M60.96,220.53l4.68-6.72,7.35-10.55,6.49-9.44,9.27-13.25,4.26-6.18,39.03-58.12c3.51-5.22,8.38-8.55,14.62-8.98,5.23-.37,12.11,1.5,16.04,6.6l36.5,47.47,63.51-86.1c6.7-9.08,19.98-8.81,27.47-2.15,8.69,7.72,8.41,18.66,1.54,27.94l-77.2,104.32c-7.04,8.9-21.17,10.89-28.64,1.32l-36.63-46.97-64.92,93.98c-2.26,3.28-6.84,1.71-8.59-.27-2.95-3.34-2.02-6,.46-9.39l11.53-15.74c1.76-2.4.9-6.57-.78-8.41-1.57-1.72-6.29-3.08-8.56-1.04-6.45,5.77-8.89,15.76-16.35,11.36-3.19-1.88-3.55-6.12-1.08-9.68Z"/>
      <circle class="st0" cx="310.34" cy="42.73" r="20.64"/>
      <path class="st1" d="M54.81,294.19c-2.28,3.09-5.23,4.12-8.39,2.51-2.06-1.05-4.38-5.03-2.56-7.86,5.21-8.13,10.65-15.44,16.91-22.93,1.7-2.03,6.25-1.1,8.05.59,1.79,1.67,2.38,5.52.39,8.2l-14.41,19.5Z"/>
      <path class="st1" d="M42.98,261.79c2.14,5.13-4.74,12.73-8.3,12.88-2.5.1-5.73-1.95-6.25-3.83-1.54-5.59,4.63-12.74,7.82-12.84,2.82-.08,5.85,1.69,6.72,3.79Z"/>
      <path class="st1" d="M50.74,237.08c3.89-.76,7.11,1.43,7.84,4.94.76,3.71-.94,6.34-5.2,7.8-2.72.93-6.14-1.09-7.39-4.47-1.25-3.4.6-7.46,4.75-8.27Z"/>
    </g>
  </g>
  <g>
    <path class="st0" d="M1121.99,225.35c-17.01-.78-28.88-13.96-30.22-30.44-.4-4.91.43-9.58,2.08-14.19,2.24-6.22,6.12-11.47,11.49-15.32,11.42-7.58,24.71-7.78,35.87.86v-33.66s16.98,0,16.98,0l-.06,28.8-.02,63.22-16.82.03v-5.77c-5.5,4.5-12.04,6.79-19.31,6.48ZM1141.61,192.68c0-9.6-7.79-17.38-17.39-17.38s-17.39,7.78-17.39,17.38,7.79,17.38,17.39,17.38,17.39-7.78,17.39-17.38Z"/>
    <path class="st0" d="M980.57,218.17c-9.68,7.5-21.91,8.4-33.67,6.01-3.66-.89-7-2.12-10.28-3.94-5.7-3.26-10-8.3-12.39-14.56l18.22-4.83c1.8,4.3,5.24,7.01,9.63,7.96,3.59.73,7.23.74,10.86.15,5.53-.88,10.63-5.56,8.85-10.87-.6-1.77-1.9-3.14-3.49-4.11-2.45-1.48-5-2.58-7.77-3.43l-13.91-4.26c-3.37-1.03-6.47-2.34-9.52-4.09-8.98-5.15-12.51-14.94-10.26-24.9,3.83-16.86,22.7-23.24,38.4-19.64,9.73,2.17,16.87,8.75,21.8,17.38l-17.68,5.68c-1.17-1.93-2.38-3.6-4.24-4.75-4.94-3.08-11.19-3.25-16.31-.55-2.71,1.43-4.28,4.12-4.07,7.15.15,2.16,1.31,3.95,3.14,5.07,2.4,1.48,4.95,2.49,7.68,3.31l11.2,3.38c5.96,1.8,11.94,4.29,16.58,8.4,2.35,2.08,3.93,4.61,5.14,7.48,4.15,9.87.45,21.48-7.91,27.96Z"/>
    <path class="st0" d="M1246.13,192.61c0,18.31-14.85,33.15-33.17,33.15s-33.17-14.84-33.17-33.15,14.85-33.15,33.17-33.15,33.17,14.84,33.17,33.15ZM1230.13,192.79c0-9.48-7.69-17.17-17.18-17.17s-17.18,7.69-17.18,17.17,7.69,17.17,17.18,17.17,17.18-7.69,17.18-17.17Z"/>
    <path class="st0" d="M1090.41,175.18c-6.22,13.33-4.95,26.52,2.14,39.08.71,2.65,1.73,5.04,3.64,7.06l-.03,3.3h-18.38s-.06-7.61-.06-7.61l-7.51,5.39c-2.76,1.98-5.87,2.7-9.3,2.92-6.77.44-13.44-1.69-18.4-6.36-4.73-4.45-7.64-11.52-7.94-18.06l-.02-19.95.14-19.42h17.35s0,36.38,0,36.38c.21,3.04.91,5.79,2.77,8.15,4.41,5.6,13.6,5.63,18.54.89,2.65-2.54,4.27-6.11,4.27-9.87l.04-19.85-.12-4.87-.08-10.82h17.01s.02,5.78.02,5.78c-1.62,2.55-2.76,5.04-4.08,7.87Z"/>
    <path class="st0" d="M1029.48,209.34v15.3s-11.15.02-11.15.02c-3.25,0-6.31-.68-9.26-1.84-6.72-2.88-10.12-8.62-10.35-15.91v-29.23s-10.36,0-10.36,0l-.02-14.65,10.38-.02v-13.99s16.85-.02,16.85-.02v14.02s13.92.01,13.92.01v14.69s-13.93,0-13.93,0l.02,7.26.05,18.76c.29,1.98,1.04,3.58,2.72,4.61,1.1.54,2.32.88,3.57,1.01l7.57-.02Z"/>
    <path class="st0" d="M1174.97,185.4c-2.26,11.01.78,21.62,6.71,30.99l3.6,4.43-.02,3.81h-21.92s0-63.09,0-63.09h20.77s.03,5.1.03,5.1c-4.52,5.4-7.73,11.78-9.16,18.76Z"/>
    <ellipse class="st1" cx="1174.31" cy="145.45" rx="10.15" ry="10.14"/>
    <ellipse class="st1" cx="1254.93" cy="216.14" rx="9.35" ry="9.35"/>
  </g>
</svg>