<?xml version="1.0" encoding="UTF-8"?>
<svg id="Layer_1" xmlns="http://www.w3.org/2000/svg" version="1.1" viewBox="0 0 1280 300">
  <!-- Generator: Adobe Illustrator 30.3.0, SVG Export Plug-In . SVG Version: 2.1.3 Build 182)  -->
  <defs>
    <style>
      .st0 {
        fill: #fb8523;
      }

      .st1 {
        fill: #061651;
      }
    </style>
  </defs>
  <g>
    <g>
      <path class="st1" d="M359.04,192.93c14.11,0,24.6-5.01,31.47-15.04h36.48c-4.64,14.11-12.86,25.25-24.65,33.42-11.79,8.17-26.14,12.25-43.03,12.25-10.77,0-20.61-1.72-29.52-5.15s-16.53-8.31-22.84-14.62c-6.31-6.31-11.19-13.93-14.62-22.84-3.44-8.91-5.15-18.75-5.15-29.52s1.71-20.56,5.15-29.38c3.43-8.82,8.31-16.34,14.62-22.56,6.31-6.22,13.93-11.04,22.84-14.48,8.91-3.43,18.75-5.15,29.52-5.15s20.56,1.72,29.38,5.15c8.82,3.44,16.38,8.26,22.7,14.48,6.31,6.22,11.18,13.74,14.62,22.56,3.43,8.82,5.15,18.62,5.15,29.38,0,2.04-.05,3.95-.14,5.71-.1,1.77-.24,3.58-.42,5.43h-108.9c1.85,9.66,6.03,17.13,12.53,22.42,6.5,5.29,14.76,7.94,24.79,7.94ZM394.13,131.94c-2.97-6.87-7.48-12.16-13.51-15.88-6.04-3.71-13.23-5.57-21.58-5.57s-15.51,1.86-21.45,5.57c-5.94,3.72-10.4,9.01-13.37,15.88h69.91Z"/>
      <path class="st1" d="M427.27,81.81h38.43l27.29,41.22,27.29-41.22h38.43l-45.95,69.63,45.95,69.63h-38.43l-27.29-41.22-27.29,41.22h-38.43l45.95-69.63-45.95-69.63Z"/>
      <path class="st1" d="M565.7,276.77v-125.61c0-11.14,1.9-21.17,5.71-30.08,3.8-8.91,8.96-16.43,15.46-22.56,6.5-6.13,14.2-10.81,23.12-14.06,8.91-3.25,18.47-4.87,28.69-4.87s20.19,1.72,28.83,5.15c8.63,3.44,16.11,8.31,22.42,14.62,6.31,6.31,11.18,13.83,14.62,22.56,3.43,8.73,5.15,18.48,5.15,29.24s-1.72,20.61-5.15,29.52c-3.44,8.91-8.22,16.53-14.35,22.84-6.13,6.31-13.46,11.19-22,14.62s-17.82,5.15-27.85,5.15-18.57-1.58-25.63-4.73c-7.05-3.15-12.25-6.87-15.59-11.14v69.35h-33.42ZM676.26,151.44c0-12.99-3.48-23.12-10.44-30.36-6.96-7.24-16.29-10.86-27.99-10.86s-21.08,3.62-28.13,10.86-10.58,17.36-10.58,30.36,3.52,23.12,10.58,30.36c7.05,7.24,16.43,10.86,28.13,10.86s21.03-3.62,27.99-10.86c6.96-7.24,10.44-17.36,10.44-30.36Z"/>
      <path class="st1" d="M722.49,26.11h33.42v194.96h-33.42V26.11Z"/>
      <path class="st1" d="M764.27,81.81h34.81l33.42,96.36,33.42-96.36h34.81l-49.3,139.26c-2.78,8.17-5.62,16.34-8.49,24.51-2.88,8.17-6.64,15.55-11.28,22.14-4.64,6.59-10.63,11.93-17.96,16.01-7.34,4.08-16.85,6.13-28.55,6.13v-30.64c4.64,0,8.96-1.3,12.95-3.9,3.99-2.6,7.33-5.94,10.03-10.03,2.69-4.09,4.46-8.59,5.29-13.51.84-4.92.42-9.7-1.25-14.34l-47.9-135.64Z"/>
    </g>
    <g>
      <path class="st1" d="M64.34,218.78l4.54-6.53,7.14-10.25,6.31-9.17,9-12.87,4.14-6,37.91-56.45c3.41-5.07,8.14-8.3,14.2-8.73,5.08-.36,11.76,1.46,15.57,6.41l35.45,46.1,61.68-83.63c6.5-8.82,19.4-8.55,26.68-2.09,8.44,7.5,8.17,18.12,1.5,27.13l-74.98,101.32c-6.84,8.65-20.56,10.58-27.81,1.29l-35.58-45.62-63.05,91.27c-2.2,3.18-6.64,1.67-8.34-.26-2.87-3.25-1.96-5.83.44-9.12l11.2-15.28c1.71-2.33.87-6.38-.76-8.17-1.52-1.67-6.11-2.99-8.32-1.01-6.27,5.61-8.64,15.31-15.88,11.03-3.1-1.83-3.45-5.95-1.05-9.4Z"/>
      <circle class="st0" cx="306.54" cy="46.1" r="20.05"/>
      <path class="st1" d="M58.36,290.32c-2.22,3-5.08,4-8.15,2.44-2-1.02-4.25-4.88-2.48-7.64,5.06-7.89,10.34-14.99,16.42-22.27,1.65-1.98,6.07-1.07,7.82.57,1.74,1.63,2.31,5.36.38,7.96l-13.99,18.93Z"/>
      <path class="st1" d="M46.87,258.85c2.07,4.99-4.6,12.36-8.06,12.51-2.43.1-5.57-1.9-6.07-3.72-1.5-5.43,4.49-12.38,7.6-12.47,2.73-.08,5.68,1.64,6.53,3.68Z"/>
      <path class="st1" d="M54.41,234.86c3.78-.74,6.91,1.39,7.61,4.8.74,3.61-.91,6.16-5.05,7.57-2.64.9-5.97-1.06-7.17-4.35-1.21-3.3.58-7.24,4.62-8.03Z"/>
    </g>
  </g>
  <g>
    <path class="st0" d="M1094.84,223.46c-16.52-.76-28.05-13.56-29.35-29.56-.39-4.77.41-9.3,2.02-13.78,2.17-6.04,5.95-11.14,11.16-14.88,11.09-7.37,24-7.55,34.84.83v-32.69s16.49,0,16.49,0l-.06,27.97-.02,61.4-16.33.03v-5.61c-5.34,4.37-11.7,6.6-18.75,6.29ZM1113.9,191.73c0-9.32-7.56-16.88-16.89-16.88s-16.89,7.56-16.89,16.88,7.56,16.88,16.89,16.88,16.89-7.56,16.89-16.88Z"/>
    <path class="st0" d="M957.49,216.49c-9.4,7.28-21.28,8.16-32.7,5.84-3.56-.86-6.8-2.06-9.99-3.83-5.54-3.17-9.71-8.06-12.03-14.15l17.7-4.69c1.74,4.17,5.09,6.8,9.35,7.73,3.49.71,7.03.71,10.55.14,5.37-.85,10.33-5.4,8.59-10.56-.58-1.72-1.84-3.05-3.39-3.99-2.38-1.44-4.86-2.51-7.54-3.33l-13.51-4.14c-3.28-1-6.28-2.28-9.24-3.97-8.73-5.01-12.15-14.52-9.96-24.18,3.72-16.37,22.05-22.57,37.3-19.08,9.45,2.11,16.38,8.5,21.17,16.88l-17.17,5.52c-1.14-1.88-2.31-3.5-4.11-4.62-4.8-2.99-10.87-3.16-15.84-.53-2.64,1.39-4.16,4-3.95,6.94.15,2.1,1.27,3.84,3.05,4.93,2.34,1.44,4.8,2.42,7.46,3.22l10.88,3.28c5.79,1.75,11.59,4.16,16.1,8.16,2.28,2.02,3.82,4.48,4.99,7.27,4.03,9.59.44,20.86-7.68,27.15Z"/>
    <path class="st0" d="M1215.41,191.67c0,17.78-14.42,32.2-32.22,32.2s-32.22-14.41-32.22-32.2,14.42-32.2,32.22-32.2,32.22,14.41,32.22,32.2ZM1199.87,191.84c0-9.21-7.47-16.68-16.69-16.68s-16.69,7.47-16.69,16.68,7.47,16.68,16.69,16.68,16.69-7.47,16.69-16.68Z"/>
    <path class="st0" d="M1064.17,174.74c-6.04,12.95-4.8,25.76,2.08,37.95.69,2.57,1.68,4.9,3.53,6.86l-.03,3.2h-17.85s-.06-7.39-.06-7.39l-7.3,5.23c-2.68,1.92-5.7,2.62-9.03,2.83-6.58.42-13.06-1.65-17.87-6.18-4.59-4.32-7.42-11.19-7.71-17.54l-.02-19.37.14-18.87h16.85s0,35.33,0,35.33c.21,2.95.89,5.63,2.69,7.92,4.28,5.44,13.21,5.47,18.01.86,2.58-2.47,4.14-5.93,4.15-9.59l.04-19.28-.12-4.73-.08-10.51h16.52s.02,5.61.02,5.61c-1.57,2.48-2.68,4.9-3.97,7.65Z"/>
    <path class="st0" d="M1005,207.91v14.86s-10.83.02-10.83.02c-3.15,0-6.13-.66-9-1.79-6.52-2.8-9.83-8.37-10.05-15.45v-28.38s-10.06,0-10.06,0l-.02-14.23,10.08-.02v-13.59s16.36-.02,16.36-.02v13.62s13.52.01,13.52.01v14.27s-13.53,0-13.53,0l.02,7.05.05,18.22c.29,1.92,1.01,3.48,2.64,4.47,1.07.52,2.25.85,3.47.98l7.35-.02Z"/>
    <path class="st0" d="M1146.3,184.66c-2.2,10.7.76,21,6.51,30.1l3.5,4.3-.02,3.7h-21.29s0-61.28,0-61.28h20.17s.03,4.95.03,4.95c-4.39,5.25-7.51,11.44-8.9,18.23Z"/>
    <ellipse class="st1" cx="1145.66" cy="145.86" rx="9.85" ry="9.85"/>
  </g>
</svg>