<?xml version="1.0" encoding="UTF-8"?>
<svg id="Layer_1" xmlns="http://www.w3.org/2000/svg" version="1.1" viewBox="0 0 1224 700">
  <!-- Generator: Adobe Illustrator 30.3.0, SVG Export Plug-In . SVG Version: 2.1.3 Build 182)  -->
  <defs>
    <style>
      .st0 {
        fill: #fff;
      }

      .st1 {
        fill: #fb8523;
      }

      .st2 {
        fill: #061651;
      }
    </style>
  </defs>
  <rect class="st1" x="742.9" y="486.39" width="418.67" height="125.52"/>
  <g>
    <g>
      <path class="st2" d="M478.17,340.4c17.14,0,29.89-6.09,38.24-18.28h44.33c-5.64,17.15-15.63,30.69-29.95,40.61-14.33,9.93-31.76,14.89-52.29,14.89-13.09,0-25.04-2.09-35.87-6.26-10.83-4.17-20.08-10.09-27.75-17.77-7.67-7.67-13.6-16.92-17.77-27.75-4.18-10.83-6.26-22.79-6.26-35.87s2.08-24.99,6.26-35.71c4.17-10.71,10.1-19.85,17.77-27.41,7.67-7.56,16.92-13.42,27.75-17.6,10.83-4.17,22.79-6.26,35.87-6.26s24.99,2.09,35.71,6.26c10.71,4.18,19.91,10.04,27.58,17.6,7.67,7.56,13.59,16.7,17.77,27.41,4.17,10.72,6.26,22.62,6.26,35.71,0,2.49-.06,4.8-.17,6.94-.12,2.15-.29,4.35-.51,6.6h-132.33c2.25,11.73,7.33,20.81,15.23,27.24,7.9,6.43,17.94,9.65,30.12,9.65ZM520.81,266.29c-3.61-8.34-9.08-14.77-16.41-19.29-7.33-4.51-16.08-6.77-26.23-6.77s-18.84,2.26-26.06,6.77c-7.22,4.52-12.64,10.95-16.25,19.29h84.95Z"/>
      <path class="st2" d="M567.85,205.37h46.7l33.17,50.09,33.17-50.09h46.7l-55.84,84.61,55.84,84.61h-46.7l-33.17-50.09-33.17,50.09h-46.7l55.84-84.61-55.84-84.61Z"/>
      <path class="st2" d="M742.82,442.27v-152.63c0-13.54,2.31-25.72,6.94-36.55,4.62-10.83,10.88-19.97,18.78-27.41,7.9-7.45,17.26-13.14,28.09-17.09,10.83-3.95,22.45-5.92,34.86-5.92s24.54,2.09,35.03,6.26c10.49,4.18,19.57,10.1,27.24,17.77,7.67,7.67,13.59,16.81,17.77,27.41,4.17,10.61,6.26,22.45,6.26,35.54s-2.09,25.04-6.26,35.87c-4.18,10.83-9.99,20.08-17.43,27.75-7.45,7.67-16.36,13.6-26.74,17.77-10.38,4.17-21.65,6.26-33.84,6.26s-22.57-1.92-31.14-5.75c-8.57-3.83-14.89-8.34-18.95-13.54v84.27h-40.61ZM877.18,289.98c0-15.79-4.23-28.09-12.69-36.89-8.46-8.8-19.8-13.2-34.01-13.2s-25.62,4.4-34.19,13.2c-8.57,8.8-12.85,21.1-12.85,36.89s4.28,28.09,12.85,36.89c8.57,8.8,19.97,13.2,34.19,13.2s25.55-4.4,34.01-13.2c8.46-8.8,12.69-21.09,12.69-36.89Z"/>
      <path class="st2" d="M940.13,137.68h40.61v236.9h-40.61v-236.9Z"/>
      <path class="st2" d="M997.66,205.37h42.3l40.61,117.1,40.61-117.1h42.3l-59.9,169.22c-3.38,9.93-6.83,19.85-10.32,29.78-3.5,9.93-8.07,18.89-13.71,26.91-5.64,8.01-12.92,14.5-21.83,19.46-8.92,4.96-20.48,7.45-34.69,7.45v-37.23c5.64,0,10.88-1.58,15.74-4.74,4.85-3.16,8.91-7.22,12.18-12.18,3.27-4.96,5.42-10.44,6.43-16.41,1.02-5.98.51-11.79-1.52-17.43l-58.21-164.82Z"/>
    </g>
    <g>
      <path class="st2" d="M100.06,371.81l5.52-7.94,8.67-12.45,7.67-11.15,10.94-15.63,5.03-7.29,46.06-68.59c4.14-6.16,9.89-10.09,17.25-10.6,6.17-.43,14.29,1.77,18.92,7.79l43.08,56.02,74.95-101.62c7.9-10.72,23.58-10.39,32.42-2.53,10.25,9.11,9.92,22.02,1.82,32.97l-91.11,123.12c-8.31,10.51-24.99,12.86-33.8,1.56l-43.24-55.44-76.62,110.91c-2.67,3.87-8.07,2.02-10.14-.32-3.48-3.95-2.39-7.09.54-11.08l13.61-18.57c2.07-2.83,1.06-7.76-.92-9.92-1.85-2.03-7.42-3.63-10.11-1.23-7.61,6.81-10.5,18.6-19.29,13.41-3.77-2.22-4.19-7.23-1.27-11.42Z"/>
      <circle class="st1" cx="394.37" cy="161.98" r="24.36"/>
      <path class="st2" d="M92.8,458.75c-2.69,3.64-6.18,4.86-9.9,2.97-2.43-1.23-5.17-5.93-3.02-9.28,6.15-9.59,12.56-18.22,19.95-27.07,2.01-2.4,7.38-1.3,9.51.69,2.11,1.98,2.8,6.51.47,9.68l-17.01,23.01Z"/>
      <path class="st2" d="M78.84,420.5c2.52,6.06-5.59,15.02-9.79,15.2-2.96.12-6.76-2.31-7.37-4.52-1.82-6.6,5.46-15.04,9.23-15.15,3.32-.1,6.91,1.99,7.94,4.47Z"/>
      <path class="st2" d="M88,391.35c4.59-.89,8.4,1.69,9.25,5.83.9,4.38-1.11,7.49-6.14,9.2-3.21,1.1-7.25-1.29-8.72-5.28-1.47-4.02.71-8.8,5.61-9.76Z"/>
    </g>
  </g>
  <g>
    <path class="st0" d="M772.39,587.07v-15.46h6.22l.11,1.07c.49,5.58.85,8.74,1.09,9.47.24.73,1.22,1.66,2.94,2.78,3.36,2.17,7.12,3.26,11.26,3.26,3.36,0,6.12-1.02,8.26-3.06s3.22-4.68,3.22-7.9c0-2.85-.71-5.12-2.13-6.8-1.46-1.65-4.02-3.19-7.67-4.61l-5.66-2.19c-6.09-2.35-10.5-5.01-13.22-7.96-2.73-2.92-4.09-6.47-4.09-10.65,0-4.93,1.97-9.01,5.91-12.22,3.94-3.21,8.95-4.82,15.04-4.82s12.08,1.16,18.43,3.47v14.51h-6.22v-1.01c-.22-3.66-.52-6.19-.9-7.59s-.97-2.44-1.79-3.11c-2.43-1.9-5.36-2.86-8.8-2.86-3.25,0-5.95,1.04-8.09,3.13-2.15,2.09-3.22,4.72-3.22,7.89,0,2.61.88,4.7,2.63,6.26,1.72,1.6,5.19,3.47,10.42,5.59l5.15,2.13c5.64,2.32,9.58,4.71,11.82,7.18,2.2,2.51,3.31,5.72,3.31,9.64,0,5.42-2.16,9.84-6.47,13.26-4.31,3.42-9.92,5.13-16.83,5.13-7.28,0-14.19-1.51-20.73-4.54Z"/>
    <path class="st0" d="M858.22,589.87c-2.8,1.16-5.47,1.74-8.01,1.74-6.46,0-11.18-1.62-14.15-4.87-2.97-3.25-4.45-8.42-4.45-15.52v-37.31h-8.96v-4.54h8.96v-11.04l11.04-2.75v13.78h16.97v4.54h-16.97v38.77c0,5.23.69,8.94,2.08,11.15,1.39,2.2,3.75,3.31,7.08,3.31,1.76,0,3.9-.58,6.41-1.74v4.48Z"/>
    <path class="st0" d="M907.25,590.21v-11.43c-2.8,4.26-6.02,7.46-9.66,9.61-3.64,2.15-7.72,3.22-12.24,3.22-5.23,0-9.34-1.74-12.32-5.21-2.99-3.44-4.48-8.16-4.48-14.17v-28.35c0-5.04-.42-8.05-1.26-9.02-.84-.97-3.52-1.62-8.04-1.96l-1.06-.06v-3.47h21.4v41.12c0,4.67.83,8.17,2.49,10.5,1.66,2.33,4.15,3.5,7.48,3.5,3.06,0,6.07-.78,9.02-2.35,2.95-1.57,5.84-3.92,8.68-7.06v-31.2c-.26-5.56-.69-8.7-1.29-9.41-.6-.71-3.29-1.23-8.07-1.57l-1.01-.06v-3.47h21.4v46.33c.26,5.57.69,8.7,1.28,9.41.59.71,3.27,1.23,8.02,1.57l1.06.06v3.47h-21.4Z"/>
    <path class="st0" d="M976.27,590.21v-11.38c-2.69,4.24-5.82,7.44-9.4,9.58s-7.56,3.21-11.98,3.21c-6.88,0-12.36-2.72-16.44-8.16-4.08-5.44-6.11-12.74-6.11-21.9,0-10.17,2.34-18.31,7.01-24.42,4.67-6.11,10.88-9.17,18.62-9.17,3.55,0,6.85.69,9.9,2.07s5.84,3.46,8.39,6.22v-20c0-5.12-.4-8.15-1.2-9.1-.8-.95-3.5-1.58-8.1-1.88l-1.06-.06v-3.47h21.4v73.95c0,5.08.4,8.11,1.2,9.08.8.97,3.5,1.61,8.09,1.9l1.06.06v3.47h-21.4ZM976.27,540.58c-2.88-2.17-5.72-3.79-8.53-4.86-2.81-1.07-5.57-1.6-8.3-1.6-5.13,0-8.97,2.03-11.53,6.09-2.56,4.06-3.84,10.17-3.84,18.33,0,8.65,1.24,15.13,3.73,19.46s6.22,6.48,11.2,6.48c3.37,0,6.49-.79,9.37-2.39,2.88-1.59,5.52-3.98,7.91-7.16v-34.36Z"/>
    <path class="st0" d="M1018.62,529.37v46.33c0,5.08.41,8.11,1.23,9.08s3.51,1.61,8.08,1.9l1.06.06v3.47h-31.76v-3.47l1.06-.06c4.52-.3,7.2-.94,8.04-1.93.84-.99,1.26-4.01,1.26-9.05v-31.82c0-5.04-.42-8.05-1.26-9.02-.84-.97-3.52-1.62-8.04-1.96l-1.06-.06v-3.47h21.4ZM1007.59,518.33v-11.04h11.04v11.04h-11.04Z"/>
    <path class="st0" d="M1060.36,591.61c-8.96,0-16.04-2.85-21.23-8.55-5.19-5.7-7.79-13.47-7.79-23.3s2.6-17.59,7.79-23.27c5.19-5.68,12.27-8.52,21.23-8.52s16.09,2.84,21.26,8.52,7.76,13.44,7.76,23.27-2.6,17.6-7.79,23.3c-5.19,5.7-12.27,8.55-21.23,8.55ZM1060.34,588.19c4.97,0,9.11-2.68,12.4-8.05,3.29-5.37,4.94-12.15,4.94-20.35s-1.65-14.88-4.94-20.29c-3.29-5.41-7.43-8.11-12.4-8.11s-9.05,2.7-12.34,8.11c-3.29,5.41-4.94,12.17-4.94,20.29s1.64,14.98,4.91,20.35c3.27,5.37,7.4,8.05,12.37,8.05Z"/>
    <path class="st0" d="M1098.13,587.07v-15.46h6.22l.11,1.07c.49,5.58.85,8.74,1.09,9.47.24.73,1.22,1.66,2.94,2.78,3.36,2.17,7.12,3.26,11.26,3.26,3.36,0,6.12-1.02,8.26-3.06s3.22-4.68,3.22-7.9c0-2.85-.71-5.12-2.13-6.8-1.46-1.65-4.02-3.19-7.67-4.61l-5.66-2.19c-6.09-2.35-10.5-5.01-13.22-7.96-2.73-2.92-4.09-6.47-4.09-10.65,0-4.93,1.97-9.01,5.91-12.22,3.94-3.21,8.95-4.82,15.04-4.82s12.08,1.16,18.43,3.47v14.51h-6.22v-1.01c-.22-3.66-.52-6.19-.9-7.59s-.97-2.44-1.79-3.11c-2.43-1.9-5.36-2.86-8.8-2.86-3.25,0-5.95,1.04-8.09,3.13-2.15,2.09-3.22,4.72-3.22,7.89,0,2.61.88,4.7,2.63,6.26,1.72,1.6,5.19,3.47,10.42,5.59l5.15,2.13c5.64,2.32,9.58,4.71,11.82,7.18,2.2,2.51,3.31,5.72,3.31,9.64,0,5.42-2.16,9.84-6.47,13.26-4.31,3.42-9.92,5.13-16.83,5.13-7.28,0-14.19-1.51-20.73-4.54Z"/>
  </g>
</svg>