<?xml version="1.0" encoding="UTF-8"?>
<svg xmlns="http://www.w3.org/2000/svg" viewBox="0 0 400 400">
  <rect width="400" height="400" rx="88" fill="#0d0e1f"/>
  <svg x="35" y="45" width="330" height="310" viewBox="20 10 410 380" preserveAspectRatio="xMidYMid meet">
    <g fill="#ffffff">
      <path d="M89.68,270.46l5.56-8,8.74-12.54,7.72-11.23,11.02-15.75,5.07-7.34,46.4-69.1c4.17-6.21,9.96-10.16,17.38-10.68,6.22-.44,14.4,1.78,19.07,7.85l43.4,56.44,75.51-102.37c7.96-10.79,23.75-10.47,32.66-2.55,10.33,9.18,10,22.18,1.83,33.21l-91.79,124.03c-8.37,10.58-25.17,12.95-34.05,1.57l-43.56-55.85-77.19,111.73c-2.69,3.9-8.13,2.04-10.21-.32-3.51-3.98-2.4-7.14.54-11.16l13.71-18.71c2.09-2.85,1.07-7.81-.93-10-1.86-2.04-7.48-3.66-10.18-1.24-7.67,6.87-10.58,18.74-19.44,13.51-3.79-2.24-4.22-7.28-1.28-11.51Z"/>
      <circle cx="386.18" cy="59.07" r="24.54"/>
      <path d="M82.37,358.04c-2.71,3.67-6.22,4.89-9.97,2.99-2.45-1.24-5.2-5.98-3.04-9.35,6.2-9.66,12.66-18.36,20.1-27.27,2.02-2.42,7.43-1.31,9.58.7,2.13,1.99,2.83,6.56.47,9.75l-17.13,23.18Z"/>
      <path d="M68.3,319.51c2.54,6.1-5.63,15.14-9.87,15.31-2.98.12-6.81-2.32-7.43-4.55-1.84-6.65,5.5-15.15,9.3-15.26,3.35-.1,6.96,2.01,8,4.5Z"/>
      <path d="M77.53,290.14c4.62-.9,8.46,1.7,9.32,5.88.91,4.41-1.12,7.54-6.19,9.27-3.23,1.1-7.31-1.3-8.78-5.32-1.49-4.05.71-8.87,5.65-9.83Z"/>
    </g>
  </svg>
</svg>
